<svg viewBox="0 0 500 500" xmlns="http://www.w3.org/2000/svg">
  <circle cx="250" cy="250" r="200" fill="none" stroke="#333" stroke-width="2"/>
  <circle cx="250" cy="250" r="150" fill="none" stroke="#333" stroke-width="1"/>
  
  <!-- Aries 0° -->
  <path d="M250 100 L250 50 A200 200 0 0 1 284 53 L276 102 A150 150 0 0 0 250 100 Z" fill="#EF4444" fill-opacity="0.2" stroke="#EF4444" stroke-width="1"/>
  <text x="267" y="80" font-size="18" fill="#EF4444" text-anchor="middle">♈</text>
  
  <!-- Taurus 30° -->
  <path d="M276 102 L284 53 A200 200 0 0 1 317 62 L300 110 A150 150 0 0 0 276 102 Z" fill="#10B981" fill-opacity="0.2" stroke="#10B981" stroke-width="1"/>
  <text x="292" y="85" font-size="18" fill="#10B981" text-anchor="middle">♉</text>
  
  <!-- Gemini 60° -->
  <path d="M300 110 L317 62 A200 200 0 0 1 347 77 L322 126 A150 150 0 0 0 300 110 Z" fill="#F59E0B" fill-opacity="0.2" stroke="#F59E0B" stroke-width="1"/>
  <text x="320" y="100" font-size="18" fill="#F59E0B" text-anchor="middle">♊</text>
  
  <!-- Cancer 90° -->
  <path d="M322 126 L347 77 A200 200 0 0 1 372 97 L336 146 A150 150 0 0 0 322 126 Z" fill="#3B82F6" fill-opacity="0.2" stroke="#3B82F6" stroke-width="1"/>
  <text x="345" y="120" font-size="18" fill="#3B82F6" text-anchor="middle">♋</text>
  
  <!-- Leo 120° -->
  <path d="M336 146 L372 97 A200 200 0 0 1 391 123 L346 169 A150 150 0 0 0 336 146 Z" fill="#F59E0B" fill-opacity="0.2" stroke="#F59E0B" stroke-width="1"/>
  <text x="365" y="140" font-size="18" fill="#F59E0B" text-anchor="middle">♌</text>
  
  <!-- Virgo 150° -->
  <path d="M346 169 L391 123 A200 200 0 0 1 403 152 L351 192 A150 150 0 0 0 346 169 Z" fill="#10B981" fill-opacity="0.2" stroke="#10B981" stroke-width="1"/>
  <text x="380" y="165" font-size="18" fill="#10B981" text-anchor="middle">♍</text>
  
  <!-- Libra 180° -->
  <path d="M351 192 L403 152 A200 200 0 0 1 409 183 L350 215 A150 150 0 0 0 351 192 Z" fill="#6366F1" fill-opacity="0.2" stroke="#6366F1" stroke-width="1"/>
  <text x="385" y="190" font-size="18" fill="#6366F1" text-anchor="middle">♎</text>
  
  <!-- Scorpio 210° -->
  <path d="M350 215 L409 183 A200 200 0 0 1 409 215 L343 238 A150 150 0 0 0 350 215 Z" fill="#8B5CF6" fill-opacity="0.2" stroke="#8B5CF6" stroke-width="1"/>
  <text x="385" y="215" font-size="18" fill="#8B5CF6" text-anchor="middle">♏</text>
  
  <!-- Sagittarius 240° -->
  <path d="M343 238 L409 215 A200 200 0 0 1 403 247 L331 257 A150 150 0 0 0 343 238 Z" fill="#EF4444" fill-opacity="0.2" stroke="#EF4444" stroke-width="1"/>
  <text x="380" y="240" font-size="18" fill="#EF4444" text-anchor="middle">♐</text>
  
  <!-- Capricorn 270° -->
  <path d="M331 257 L403 247 A200 200 0 0 1 391 277 L314 272 A150 150 0 0 0 331 257 Z" fill="#6B7280" fill-opacity="0.2" stroke="#6B7280" stroke-width="1"/>
  <text x="365" y="265" font-size="18" fill="#6B7280" text-anchor="middle">♑</text>
  
  <!-- Aquarius 300° -->
  <path d="M314 272 L391 277 A200 200 0 0 1 372 303 L292 281 A150 150 0 0 0 314 272 Z" fill="#14B8A6" fill-opacity="0.2" stroke="#14B8A6" stroke-width="1"/>
  <text x="345" y="285" font-size="18" fill="#14B8A6" text-anchor="middle">♒</text>
  
  <!-- Pisces 330° -->
  <path d="M292 281 L372 303 A200 200 0 0 1 347 323 L268 284 A150 150 0 0 0 292 281 Z" fill="#3B82F6" fill-opacity="0.2" stroke="#3B82F6" stroke-width="1"/>
  <text x="320" y="300" font-size="18" fill="#3B82F6" text-anchor="middle">♓</text>
  
  <!-- Center decoration -->
  <circle cx="250" cy="250" r="10" fill="#6366F1" fill-opacity="0.3" stroke="#6366F1" stroke-width="1"/>
</svg>
